<svg width="400" height="73" viewBox="0 0 400 73" fill="none" xmlns="http://www.w3.org/2000/svg">
<g filter="url(#filter0_dd_109_2)">
<g filter="url(#filter1_d_109_2)">
<path d="M51.1016 45.1953C51.9297 45.1953 52.6641 45.0391 53.3047 44.7266C53.9453 44.3984 54.4453 43.9453 54.8047 43.3672C55.1797 42.7734 55.375 42.0781 55.3906 41.2812H61.7422C61.7266 43.0625 61.25 44.6484 60.3125 46.0391C59.375 47.4141 58.1172 48.5 56.5391 49.2969C54.9609 50.0781 53.1953 50.4688 51.2422 50.4688C49.2734 50.4688 47.5547 50.1406 46.0859 49.4844C44.6328 48.8281 43.4219 47.9219 42.4531 46.7656C41.4844 45.5938 40.7578 44.2344 40.2734 42.6875C39.7891 41.125 39.5469 39.4531 39.5469 37.6719V36.9922C39.5469 35.1953 39.7891 33.5234 40.2734 31.9766C40.7578 30.4141 41.4844 29.0547 42.4531 27.8984C43.4219 26.7266 44.6328 25.8125 46.0859 25.1562C47.5391 24.5 49.2422 24.1719 51.1953 24.1719C53.2734 24.1719 55.0938 24.5703 56.6562 25.3672C58.2344 26.1641 59.4688 27.3047 60.3594 28.7891C61.2656 30.2578 61.7266 32 61.7422 34.0156H55.3906C55.375 33.1719 55.1953 32.4062 54.8516 31.7188C54.5234 31.0312 54.0391 30.4844 53.3984 30.0781C52.7734 29.6562 52 29.4453 51.0781 29.4453C50.0938 29.4453 49.2891 29.6562 48.6641 30.0781C48.0391 30.4844 47.5547 31.0469 47.2109 31.7656C46.8672 32.4688 46.625 33.2734 46.4844 34.1797C46.3594 35.0703 46.2969 36.0078 46.2969 36.9922V37.6719C46.2969 38.6562 46.3594 39.6016 46.4844 40.5078C46.6094 41.4141 46.8438 42.2188 47.1875 42.9219C47.5469 43.625 48.0391 44.1797 48.6641 44.5859C49.2891 44.9922 50.1016 45.1953 51.1016 45.1953ZM72.4062 30.1719V50H65.6562V24.6406H72.0078L72.4062 30.1719ZM80.0469 24.4766L79.9297 30.7344C79.6016 30.6875 79.2031 30.6484 78.7344 30.6172C78.2812 30.5703 77.8672 30.5469 77.4922 30.5469C76.5391 30.5469 75.7109 30.6719 75.0078 30.9219C74.3203 31.1562 73.7422 31.5078 73.2734 31.9766C72.8203 32.4453 72.4766 33.0156 72.2422 33.6875C72.0234 34.3594 71.8984 35.125 71.8672 35.9844L70.5078 35.5625C70.5078 33.9219 70.6719 32.4141 71 31.0391C71.3281 29.6484 71.8047 28.4375 72.4297 27.4062C73.0703 26.375 73.8516 25.5781 74.7734 25.0156C75.6953 24.4531 76.75 24.1719 77.9375 24.1719C78.3125 24.1719 78.6953 24.2031 79.0859 24.2656C79.4766 24.3125 79.7969 24.3828 80.0469 24.4766ZM94.4375 50.4688C92.4688 50.4688 90.7031 50.1562 89.1406 49.5312C87.5781 48.8906 86.25 48.0078 85.1562 46.8828C84.0781 45.7578 83.25 44.4531 82.6719 42.9688C82.0938 41.4688 81.8047 39.875 81.8047 38.1875V37.25C81.8047 35.3281 82.0781 33.5703 82.625 31.9766C83.1719 30.3828 83.9531 29 84.9688 27.8281C86 26.6562 87.25 25.7578 88.7188 25.1328C90.1875 24.4922 91.8438 24.1719 93.6875 24.1719C95.4844 24.1719 97.0781 24.4688 98.4688 25.0625C99.8594 25.6562 101.023 26.5 101.961 27.5938C102.914 28.6875 103.633 30 104.117 31.5312C104.602 33.0469 104.844 34.7344 104.844 36.5938V39.4062H84.6875V34.9062H98.2109V34.3906C98.2109 33.4531 98.0391 32.6172 97.6953 31.8828C97.3672 31.1328 96.8672 30.5391 96.1953 30.1016C95.5234 29.6641 94.6641 29.4453 93.6172 29.4453C92.7266 29.4453 91.9609 29.6406 91.3203 30.0312C90.6797 30.4219 90.1562 30.9688 89.75 31.6719C89.3594 32.375 89.0625 33.2031 88.8594 34.1562C88.6719 35.0938 88.5781 36.125 88.5781 37.25V38.1875C88.5781 39.2031 88.7188 40.1406 89 41C89.2969 41.8594 89.7109 42.6016 90.2422 43.2266C90.7891 43.8516 91.4453 44.3359 92.2109 44.6797C92.9922 45.0234 93.875 45.1953 94.8594 45.1953C96.0781 45.1953 97.2109 44.9609 98.2578 44.4922C99.3203 44.0078 100.234 43.2812 101 42.3125L104.281 45.875C103.75 46.6406 103.023 47.375 102.102 48.0781C101.195 48.7812 100.102 49.3594 98.8203 49.8125C97.5391 50.25 96.0781 50.4688 94.4375 50.4688ZM120.359 50.4688C118.391 50.4688 116.625 50.1562 115.062 49.5312C113.5 48.8906 112.172 48.0078 111.078 46.8828C110 45.7578 109.172 44.4531 108.594 42.9688C108.016 41.4688 107.727 39.875 107.727 38.1875V37.25C107.727 35.3281 108 33.5703 108.547 31.9766C109.094 30.3828 109.875 29 110.891 27.8281C111.922 26.6562 113.172 25.7578 114.641 25.1328C116.109 24.4922 117.766 24.1719 119.609 24.1719C121.406 24.1719 123 24.4688 124.391 25.0625C125.781 25.6562 126.945 26.5 127.883 27.5938C128.836 28.6875 129.555 30 130.039 31.5312C130.523 33.0469 130.766 34.7344 130.766 36.5938V39.4062H110.609V34.9062H124.133V34.3906C124.133 33.4531 123.961 32.6172 123.617 31.8828C123.289 31.1328 122.789 30.5391 122.117 30.1016C121.445 29.6641 120.586 29.4453 119.539 29.4453C118.648 29.4453 117.883 29.6406 117.242 30.0312C116.602 30.4219 116.078 30.9688 115.672 31.6719C115.281 32.375 114.984 33.2031 114.781 34.1562C114.594 35.0938 114.5 36.125 114.5 37.25V38.1875C114.5 39.2031 114.641 40.1406 114.922 41C115.219 41.8594 115.633 42.6016 116.164 43.2266C116.711 43.8516 117.367 44.3359 118.133 44.6797C118.914 45.0234 119.797 45.1953 120.781 45.1953C122 45.1953 123.133 44.9609 124.18 44.4922C125.242 44.0078 126.156 43.2812 126.922 42.3125L130.203 45.875C129.672 46.6406 128.945 47.375 128.023 48.0781C127.117 48.7812 126.023 49.3594 124.742 49.8125C123.461 50.25 122 50.4688 120.359 50.4688ZM141.219 30.0547V50H134.469V24.6406H140.797L141.219 30.0547ZM140.234 36.4297H138.406C138.406 34.5547 138.648 32.8672 139.133 31.3672C139.617 29.8516 140.297 28.5625 141.172 27.5C142.047 26.4219 143.086 25.6016 144.289 25.0391C145.508 24.4609 146.867 24.1719 148.367 24.1719C149.555 24.1719 150.641 24.3438 151.625 24.6875C152.609 25.0312 153.453 25.5781 154.156 26.3281C154.875 27.0781 155.422 28.0703 155.797 29.3047C156.188 30.5391 156.383 32.0469 156.383 33.8281V50H149.586V33.8047C149.586 32.6797 149.43 31.8047 149.117 31.1797C148.805 30.5547 148.344 30.1172 147.734 29.8672C147.141 29.6016 146.406 29.4688 145.531 29.4688C144.625 29.4688 143.836 29.6484 143.164 30.0078C142.508 30.3672 141.961 30.8672 141.523 31.5078C141.102 32.1328 140.781 32.8672 140.562 33.7109C140.344 34.5547 140.234 35.4609 140.234 36.4297ZM184.836 44.5156V50H166.672V44.5156H184.836ZM168.969 15.875V50H161.938V15.875H168.969ZM182.469 29.7734V35.1172H166.672V29.7734H182.469ZM184.812 15.875V21.3828H166.672V15.875H184.812ZM193.953 24.6406L198.148 32.3516L202.461 24.6406H209.656L202.484 37.0391L209.984 50H202.766L198.195 41.8438L193.625 50H186.406L193.906 37.0391L186.734 24.6406H193.953ZM222.945 45.1953C223.773 45.1953 224.508 45.0391 225.148 44.7266C225.789 44.3984 226.289 43.9453 226.648 43.3672C227.023 42.7734 227.219 42.0781 227.234 41.2812H233.586C233.57 43.0625 233.094 44.6484 232.156 46.0391C231.219 47.4141 229.961 48.5 228.383 49.2969C226.805 50.0781 225.039 50.4688 223.086 50.4688C221.117 50.4688 219.398 50.1406 217.93 49.4844C216.477 48.8281 215.266 47.9219 214.297 46.7656C213.328 45.5938 212.602 44.2344 212.117 42.6875C211.633 41.125 211.391 39.4531 211.391 37.6719V36.9922C211.391 35.1953 211.633 33.5234 212.117 31.9766C212.602 30.4141 213.328 29.0547 214.297 27.8984C215.266 26.7266 216.477 25.8125 217.93 25.1562C219.383 24.5 221.086 24.1719 223.039 24.1719C225.117 24.1719 226.938 24.5703 228.5 25.3672C230.078 26.1641 231.312 27.3047 232.203 28.7891C233.109 30.2578 233.57 32 233.586 34.0156H227.234C227.219 33.1719 227.039 32.4062 226.695 31.7188C226.367 31.0312 225.883 30.4844 225.242 30.0781C224.617 29.6562 223.844 29.4453 222.922 29.4453C221.938 29.4453 221.133 29.6562 220.508 30.0781C219.883 30.4844 219.398 31.0469 219.055 31.7656C218.711 32.4688 218.469 33.2734 218.328 34.1797C218.203 35.0703 218.141 36.0078 218.141 36.9922V37.6719C218.141 38.6562 218.203 39.6016 218.328 40.5078C218.453 41.4141 218.688 42.2188 219.031 42.9219C219.391 43.625 219.883 44.1797 220.508 44.5859C221.133 44.9922 221.945 45.1953 222.945 45.1953ZM244.086 14V50H237.336V14H244.086ZM243.125 36.4297H241.273C241.289 34.6641 241.523 33.0391 241.977 31.5547C242.43 30.0547 243.078 28.7578 243.922 27.6641C244.766 26.5547 245.773 25.6953 246.945 25.0859C248.133 24.4766 249.445 24.1719 250.883 24.1719C252.133 24.1719 253.266 24.3516 254.281 24.7109C255.312 25.0547 256.195 25.6172 256.93 26.3984C257.68 27.1641 258.258 28.1719 258.664 29.4219C259.07 30.6719 259.273 32.1875 259.273 33.9688V50H252.477V33.9219C252.477 32.7969 252.312 31.9141 251.984 31.2734C251.672 30.6172 251.211 30.1562 250.602 29.8906C250.008 29.6094 249.273 29.4688 248.398 29.4688C247.43 29.4688 246.602 29.6484 245.914 30.0078C245.242 30.3672 244.703 30.8672 244.297 31.5078C243.891 32.1328 243.594 32.8672 243.406 33.7109C243.219 34.5547 243.125 35.4609 243.125 36.4297ZM278.094 44.2812V32.9844C278.094 32.1719 277.961 31.4766 277.695 30.8984C277.43 30.3047 277.016 29.8438 276.453 29.5156C275.906 29.1875 275.195 29.0234 274.32 29.0234C273.57 29.0234 272.922 29.1562 272.375 29.4219C271.828 29.6719 271.406 30.0391 271.109 30.5234C270.812 30.9922 270.664 31.5469 270.664 32.1875H263.914C263.914 31.1094 264.164 30.0859 264.664 29.1172C265.164 28.1484 265.891 27.2969 266.844 26.5625C267.797 25.8125 268.93 25.2266 270.242 24.8047C271.57 24.3828 273.055 24.1719 274.695 24.1719C276.664 24.1719 278.414 24.5 279.945 25.1562C281.477 25.8125 282.68 26.7969 283.555 28.1094C284.445 29.4219 284.891 31.0625 284.891 33.0312V43.8828C284.891 45.2734 284.977 46.4141 285.148 47.3047C285.32 48.1797 285.57 48.9453 285.898 49.6016V50H279.078C278.75 49.3125 278.5 48.4531 278.328 47.4219C278.172 46.375 278.094 45.3281 278.094 44.2812ZM278.984 34.5547L279.031 38.375H275.258C274.367 38.375 273.594 38.4766 272.938 38.6797C272.281 38.8828 271.742 39.1719 271.32 39.5469C270.898 39.9062 270.586 40.3281 270.383 40.8125C270.195 41.2969 270.102 41.8281 270.102 42.4062C270.102 42.9844 270.234 43.5078 270.5 43.9766C270.766 44.4297 271.148 44.7891 271.648 45.0547C272.148 45.3047 272.734 45.4297 273.406 45.4297C274.422 45.4297 275.305 45.2266 276.055 44.8203C276.805 44.4141 277.383 43.9141 277.789 43.3203C278.211 42.7266 278.43 42.1641 278.445 41.6328L280.227 44.4922C279.977 45.1328 279.633 45.7969 279.195 46.4844C278.773 47.1719 278.234 47.8203 277.578 48.4297C276.922 49.0234 276.133 49.5156 275.211 49.9062C274.289 50.2812 273.195 50.4688 271.93 50.4688C270.32 50.4688 268.859 50.1484 267.547 49.5078C266.25 48.8516 265.219 47.9531 264.453 46.8125C263.703 45.6562 263.328 44.3438 263.328 42.875C263.328 41.5469 263.578 40.3672 264.078 39.3359C264.578 38.3047 265.312 37.4375 266.281 36.7344C267.266 36.0156 268.492 35.4766 269.961 35.1172C271.43 34.7422 273.133 34.5547 275.07 34.5547H278.984ZM296.703 30.0547V50H289.953V24.6406H296.281L296.703 30.0547ZM295.719 36.4297H293.891C293.891 34.5547 294.133 32.8672 294.617 31.3672C295.102 29.8516 295.781 28.5625 296.656 27.5C297.531 26.4219 298.57 25.6016 299.773 25.0391C300.992 24.4609 302.352 24.1719 303.852 24.1719C305.039 24.1719 306.125 24.3438 307.109 24.6875C308.094 25.0312 308.938 25.5781 309.641 26.3281C310.359 27.0781 310.906 28.0703 311.281 29.3047C311.672 30.5391 311.867 32.0469 311.867 33.8281V50H305.07V33.8047C305.07 32.6797 304.914 31.8047 304.602 31.1797C304.289 30.5547 303.828 30.1172 303.219 29.8672C302.625 29.6016 301.891 29.4688 301.016 29.4688C300.109 29.4688 299.32 29.6484 298.648 30.0078C297.992 30.3672 297.445 30.8672 297.008 31.5078C296.586 32.1328 296.266 32.8672 296.047 33.7109C295.828 34.5547 295.719 35.4609 295.719 36.4297ZM333.055 24.6406H339.172V49.1562C339.172 51.4688 338.656 53.4297 337.625 55.0391C336.609 56.6641 335.188 57.8906 333.359 58.7188C331.531 59.5625 329.406 59.9844 326.984 59.9844C325.922 59.9844 324.797 59.8438 323.609 59.5625C322.438 59.2812 321.312 58.8438 320.234 58.25C319.172 57.6562 318.281 56.9062 317.562 56L320.539 52.0156C321.32 52.9219 322.227 53.625 323.258 54.125C324.289 54.6406 325.43 54.8984 326.68 54.8984C327.898 54.8984 328.93 54.6719 329.773 54.2188C330.617 53.7812 331.266 53.1328 331.719 52.2734C332.172 51.4297 332.398 50.4062 332.398 49.2031V30.5L333.055 24.6406ZM315.992 37.625V37.1328C315.992 35.1953 316.227 33.4375 316.695 31.8594C317.18 30.2656 317.859 28.8984 318.734 27.7578C319.625 26.6172 320.703 25.7344 321.969 25.1094C323.234 24.4844 324.664 24.1719 326.258 24.1719C327.945 24.1719 329.359 24.4844 330.5 25.1094C331.641 25.7344 332.578 26.625 333.312 27.7812C334.047 28.9219 334.617 30.2734 335.023 31.8359C335.445 33.3828 335.773 35.0781 336.008 36.9219V38C335.773 39.7656 335.422 41.4062 334.953 42.9219C334.484 44.4375 333.867 45.7656 333.102 46.9062C332.336 48.0312 331.383 48.9062 330.242 49.5312C329.117 50.1562 327.773 50.4688 326.211 50.4688C324.648 50.4688 323.234 50.1484 321.969 49.5078C320.719 48.8672 319.648 47.9688 318.758 46.8125C317.867 45.6562 317.18 44.2969 316.695 42.7344C316.227 41.1719 315.992 39.4688 315.992 37.625ZM322.742 37.1328V37.625C322.742 38.6719 322.844 39.6484 323.047 40.5547C323.25 41.4609 323.562 42.2656 323.984 42.9688C324.422 43.6562 324.961 44.1953 325.602 44.5859C326.258 44.9609 327.031 45.1484 327.922 45.1484C329.156 45.1484 330.164 44.8906 330.945 44.375C331.727 43.8438 332.312 43.1172 332.703 42.1953C333.094 41.2734 333.32 40.2109 333.383 39.0078V35.9375C333.352 34.9531 333.219 34.0703 332.984 33.2891C332.75 32.4922 332.422 31.8125 332 31.25C331.578 30.6875 331.031 30.25 330.359 29.9375C329.688 29.625 328.891 29.4688 327.969 29.4688C327.078 29.4688 326.305 29.6719 325.648 30.0781C325.008 30.4688 324.469 31.0078 324.031 31.6953C323.609 32.3828 323.289 33.1953 323.07 34.1328C322.852 35.0547 322.742 36.0547 322.742 37.1328ZM356.094 50.4688C354.125 50.4688 352.359 50.1562 350.797 49.5312C349.234 48.8906 347.906 48.0078 346.812 46.8828C345.734 45.7578 344.906 44.4531 344.328 42.9688C343.75 41.4688 343.461 39.875 343.461 38.1875V37.25C343.461 35.3281 343.734 33.5703 344.281 31.9766C344.828 30.3828 345.609 29 346.625 27.8281C347.656 26.6562 348.906 25.7578 350.375 25.1328C351.844 24.4922 353.5 24.1719 355.344 24.1719C357.141 24.1719 358.734 24.4688 360.125 25.0625C361.516 25.6562 362.68 26.5 363.617 27.5938C364.57 28.6875 365.289 30 365.773 31.5312C366.258 33.0469 366.5 34.7344 366.5 36.5938V39.4062H346.344V34.9062H359.867V34.3906C359.867 33.4531 359.695 32.6172 359.352 31.8828C359.023 31.1328 358.523 30.5391 357.852 30.1016C357.18 29.6641 356.32 29.4453 355.273 29.4453C354.383 29.4453 353.617 29.6406 352.977 30.0312C352.336 30.4219 351.812 30.9688 351.406 31.6719C351.016 32.375 350.719 33.2031 350.516 34.1562C350.328 35.0938 350.234 36.125 350.234 37.25V38.1875C350.234 39.2031 350.375 40.1406 350.656 41C350.953 41.8594 351.367 42.6016 351.898 43.2266C352.445 43.8516 353.102 44.3359 353.867 44.6797C354.648 45.0234 355.531 45.1953 356.516 45.1953C357.734 45.1953 358.867 44.9609 359.914 44.4922C360.977 44.0078 361.891 43.2812 362.656 42.3125L365.938 45.875C365.406 46.6406 364.68 47.375 363.758 48.0781C362.852 48.7812 361.758 49.3594 360.477 49.8125C359.195 50.25 357.734 50.4688 356.094 50.4688Z" fill="white"/>
</g>
<path d="M28.6982 29.6309L15.9455 25.6191C14.4695 25.1621 13.4422 23.6768 13.4422 22.0264C13.4422 19.957 15.0008 18.2812 16.9256 18.2812H24.7543C26.1949 18.2812 27.6119 18.751 28.7927 19.6143C29.513 20.1348 30.4812 20.0078 31.0953 19.3604L35.2045 15.0439C36.0429 14.168 35.9248 12.708 34.9919 11.9336C32.099 9.49609 28.4857 8.1377 24.7779 8.125V2.03125C24.7779 0.914062 23.9278 0 22.8886 0H19.1101C18.0709 0 17.2208 0.914062 17.2208 2.03125V8.125H16.9256C9.4038 8.125 3.35806 15.0693 4.05474 23.3086C4.55068 29.1611 8.70713 33.9219 13.9499 35.5723L26.0532 39.3809C27.5292 39.8506 28.5565 41.3232 28.5565 42.9736C28.5565 45.043 26.9979 46.7188 25.0731 46.7188H17.2444C15.8038 46.7188 14.3868 46.249 13.206 45.3857C12.4857 44.8652 11.5175 44.9922 10.9034 45.6396L6.79422 49.9561C5.95584 50.832 6.07392 52.292 7.00676 53.0664C9.89974 55.5039 13.513 56.8623 17.2208 56.875V62.9688C17.2208 64.0859 18.0709 65 19.1101 65H22.8886C23.9278 65 24.7779 64.0859 24.7779 62.9688V56.8496C30.2805 56.7354 35.4406 53.2188 37.2591 47.6201C39.7978 39.7998 35.5351 31.7764 28.6982 29.6309Z" fill="#0BFF06"/>
</g>
<defs>
<filter id="filter0_dd_109_2" x="0" y="0" width="370.5" height="73" filterUnits="userSpaceOnUse" color-interpolation-filters="sRGB">
<feFlood flood-opacity="0" result="BackgroundImageFix"/>
<feColorMatrix in="SourceAlpha" type="matrix" values="0 0 0 0 0 0 0 0 0 0 0 0 0 0 0 0 0 0 127 0" result="hardAlpha"/>
<feOffset dy="4"/>
<feGaussianBlur stdDeviation="2"/>
<feComposite in2="hardAlpha" operator="out"/>
<feColorMatrix type="matrix" values="0 0 0 0 0 0 0 0 0 0 0 0 0 0 0 0 0 0 0.25 0"/>
<feBlend mode="normal" in2="BackgroundImageFix" result="effect1_dropShadow_109_2"/>
<feColorMatrix in="SourceAlpha" type="matrix" values="0 0 0 0 0 0 0 0 0 0 0 0 0 0 0 0 0 0 127 0" result="hardAlpha"/>
<feOffset dy="4"/>
<feGaussianBlur stdDeviation="2"/>
<feComposite in2="hardAlpha" operator="out"/>
<feColorMatrix type="matrix" values="0 0 0 0 0 0 0 0 0 0 0 0 0 0 0 0 0 0 0.25 0"/>
<feBlend mode="normal" in2="effect1_dropShadow_109_2" result="effect2_dropShadow_109_2"/>
<feBlend mode="normal" in="SourceGraphic" in2="effect2_dropShadow_109_2" result="shape"/>
</filter>
<filter id="filter1_d_109_2" x="35.5469" y="14" width="334.953" height="53.9844" filterUnits="userSpaceOnUse" color-interpolation-filters="sRGB">
<feFlood flood-opacity="0" result="BackgroundImageFix"/>
<feColorMatrix in="SourceAlpha" type="matrix" values="0 0 0 0 0 0 0 0 0 0 0 0 0 0 0 0 0 0 127 0" result="hardAlpha"/>
<feOffset dy="4"/>
<feGaussianBlur stdDeviation="2"/>
<feComposite in2="hardAlpha" operator="out"/>
<feColorMatrix type="matrix" values="0 0 0 0 0 0 0 0 0 0 0 0 0 0 0 0 0 0 0.25 0"/>
<feBlend mode="normal" in2="BackgroundImageFix" result="effect1_dropShadow_109_2"/>
<feBlend mode="normal" in="SourceGraphic" in2="effect1_dropShadow_109_2" result="shape"/>
</filter>
</defs>
</svg>
